<mxfile host="app.diagrams.net" modified="2024-06-28T13:02:58.290Z" agent="Mozilla/5.0 (Windows NT 10.0; Win64; x64) AppleWebKit/537.36 (KHTML, like Gecko) Chrome/123.0.0.0 Safari/537.36 OPR/109.0.0.0" version="24.5.5" etag="MzKVahuXurNW7MuviPV1" type="github">
  <diagram name="Strona-1" id="YNesLbR3EllEMQbYBoSg">
    <mxGraphModel>
      <root>
        <mxCell id="0" />
        <mxCell id="1" parent="0" />
      </root>
    </mxGraphModel>
  </diagram>
</mxfile>
